PathFileType	4	(X/Y/Z)	Kaydara	
DataRate	CameraRate	NumFrames	NumMarkers	Units	OrigDataRate	OrigDataStartFrame	OrigNumFrames	
120.00	120.00	4	72	mm	120.00	66	261	
Frame#	Time	Hips			RightUpLeg			RightLeg			RightFoot			RightFoot_End			LeftUpLeg			LeftLeg			LeftFoot			LeftFoot_End			Spine			Spine1			Spine2			Spine3			Neck			Head			Head_End			RightShoulder			RightArm			RightForeArm			RightHand			RightHandThumb1			RightHandThumb2			RightHandThumb3			RightHandThumb3_End			RightInHandIndex			RightHandIndex1			RightHandIndex2			RightHandIndex3			RightHandIndex3_End			RightInHandMiddle			RightHandMiddle1			RightHandMiddle2			RightHandMiddle3			RightHandMiddle3_End			RightInHandRing			RightHandRing1			RightHandRing2			RightHandRing3			RightHandRing3_End			RightInHandPinky			RightHandPinky1			RightHandPinky2			RightHandPinky3			RightHandPinky3_End			LeftShoulder			LeftArm			LeftForeArm			LeftHand			LeftHandThumb1			LeftHandThumb2			LeftHandThumb3			LeftHandThumb3_End			LeftInHandIndex			LeftHandIndex1			LeftHandIndex2			LeftHandIndex3			LeftHandIndex3_End			LeftInHandMiddle			LeftHandMiddle1			LeftHandMiddle2			LeftHandMiddle3			LeftHandMiddle3_End			LeftInHandRing			LeftHandRing1			LeftHandRing2			LeftHandRing3			LeftHandRing3_End			LeftInHandPinky			LeftHandPinky1			LeftHandPinky2			LeftHandPinky3			LeftHandPinky3_End			
		X1	Y1	Z1	X2	Y2	Z2	X3	Y3	Z3	X4	Y4	Z4	X5	Y5	Z5	X6	Y6	Z6	X7	Y7	Z7	X8	Y8	Z8	X9	Y9	Z9	X10	Y10	Z10	X11	Y11	Z11	X12	Y12	Z12	X13	Y13	Z13	X14	Y14	Z14	X15	Y15	Z15	X16	Y16	Z16	X17	Y17	Z17	X18	Y18	Z18	X19	Y19	Z19	X20	Y20	Z20	X21	Y21	Z21	X22	Y22	Z22	X23	Y23	Z23	X24	Y24	Z24	X25	Y25	Z25	X26	Y26	Z26	X27	Y27	Z27	X28	Y28	Z28	X29	Y29	Z29	X30	Y30	Z30	X31	Y31	Z31	X32	Y32	Z32	X33	Y33	Z33	X34	Y34	Z34	X35	Y35	Z35	X36	Y36	Z36	X37	Y37	Z37	X38	Y38	Z38	X39	Y39	Z39	X40	Y40	Z40	X41	Y41	Z41	X42	Y42	Z42	X43	Y43	Z43	X44	Y44	Z44	X45	Y45	Z45	X46	Y46	Z46	X47	Y47	Z47	X48	Y48	Z48	X49	Y49	Z49	X50	Y50	Z50	X51	Y51	Z51	X52	Y52	Z52	X53	Y53	Z53	X54	Y54	Z54	X55	Y55	Z55	X56	Y56	Z56	X57	Y57	Z57	X58	Y58	Z58	X59	Y59	Z59	X60	Y60	Z60	X61	Y61	Z61	X62	Y62	Z62	X63	Y63	Z63	X64	Y64	Z64	X65	Y65	Z65	X66	Y66	Z66	X67	Y67	Z67	X68	Y68	Z68	X69	Y69	Z69	X70	Y70	Z70	X71	Y71	Z71	X72	Y72	Z72	

66	0.542	5081.203	893.81699	129.612	5170.515209730321	902.5835982926126	90.92248965634099	5065.688432823729	502.738596604744	22.575797191885965	5036.802819197875	109.73032919747808	8.204446187473497	4920.6662712094485	41.074102493171765	146.52095791564432	5005.214955099794	859.510657255996	181.9598421428322	4901.414073857652	470.2751302212475	296.3206813997866	4788.829489228917	74.89557173771907	458.38412114437097	4641.085816072605	27.375694798120808	348.02457692146976	5018.291820029743	1011.8005077047702	79.29381282091065	4958.4900203691295	1070.816736971138	31.104561952613675	4892.486700597829	1125.7961848566276	-21.791628104777686	4824.767825447575	1167.9049223497364	-76.70357927316401	4750.879197373258	1214.4511505682167	-132.33926672586963	4675.189629831568	1250.6972434908046	-175.77246627794287	4536.989368977229	1329.7625705395512	-186.45898393165962	4798.6779141234965	1213.2373707661275	-130.1898080037261	4881.807834566298	1258.7968499789795	-203.58026707127524	4983.158816378948	1046.8721488325589	-298.02410738753684	5162.227118276374	930.0091860562258	-388.6589444089094	5169.953226023663	939.9117192757449	-413.06352262701574	5167.364792412472	934.3469103748188	-439.2542912465098	5167.283915029074	927.2380415849581	-456.23764726649506	5168.689362408707	918.5454793787816	-469.3215435831675	5178.650889842587	929.8339821215731	-410.6122225946058	5202.267444119563	914.9518650515984	-440.3208652277999	5208.9968349361725	901.3633119833335	-462.0010499607727	5204.618135489145	894.9300312220751	-474.74950570245534	5195.2183129302875	890.9641958986393	-484.80891904384924	5182.050339394772	921.4036420754549	-406.21015570585524	5206.926748126832	902.3290193022289	-432.80570377946736	5214.629672479162	886.4330774061805	-455.78714379123494	5209.519576492903	878.159003165811	-470.8433148164902	5199.318387285547	873.5704885768916	-481.6924421867964	5183.96389283599	915.8360945941988	-402.3294655520294	5208.254235771733	893.9338974244608	-422.759054000512	5215.295440710119	879.0171631429996	-442.05709946217456	5210.540145646628	870.4723030684976	-456.1908802648647	5201.030802925646	865.8907507645009	-466.2074128521755	5184.583164018595	909.7816570994839	-397.09463024148516	5207.635737606839	885.9850090391787	-412.572881801034	5213.677930592234	872.4792025579732	-426.79399802480725	5210.404759078976	865.4914243503798	-436.5072605308271	5202.093459643052	860.9983262976011	-445.0372839890816	4752.099477326708	1183.132077929615	-98.07391173366068	4690.163630562897	1085.3500832048062	-49.1671613256414	4901.684934108532	1006.2105704977382	-175.52194367643517	5111.549642993333	946.584717902287	-295.2045720647986	5125.375090066011	964.5644661270246	-311.52853312188756	5155.642571238383	972.0716260543688	-309.65889251749604	5178.809207799136	973.8920370396553	-307.5471501706304	5199.908760650608	972.494544331087	-305.0939797361711	5133.446964320792	954.176953598364	-311.9960770349313	5177.616075138385	952.3696239953534	-326.5447643986566	5212.000619064775	950.1604705829329	-326.6671755187147	5230.250906190566	951.1808127005456	-320.7837991280147	5243.247701571674	953.6400295764946	-311.89428687958525	5137.7629754032005	944.9265761358761	-308.81196157482634	5183.177688942259	938.1604990283571	-321.2828770563379	5221.1288456793345	934.5339769957337	-320.9366305660137	5243.353853127175	935.1815241819213	-313.60829142683673	5257.675180533751	937.5887103336593	-303.76960271301886	5139.670520019727	938.42433125242	-306.2902888369727	5181.984366091102	926.678194085863	-315.567844193297	5215.431614762456	922.2853473742707	-314.75487810569007	5237.065291154982	922.2557177869417	-307.4146367472864	5250.623771406366	924.2090582221565	-298.03513626049323	5140.704396592482	931.0847027459581	-302.18126531588604	5180.1170848693155	915.7422504013427	-308.4948234940219	5207.291487777595	910.3539406655428	-307.00514744346106	5223.260358584209	909.427424121707	-301.24544160488193	5235.379847620746	910.6369729080553	-292.7032461968461
67	0.55	5081.203	893.81699	129.612	5170.684313292839	902.7158255312596	91.08083970425965	5065.634360101906	502.85745964404737	23.18569913682366	5036.86971915281	109.77610708580735	9.23687839531886	4920.628501224165	41.273958577686344	147.620807416987	5005.05826636606	859.3889692176734	181.80810245993482	4901.089747689897	470.30354077775274	296.5170339213455	4788.130963033474	75.33858391973898	459.2282381049536	4640.698609165515	28.17394972480405	348.2750378305693	5018.204536349704	1011.7489751334057	79.26924931182302	4958.367169991056	1070.693490146345	31.034866600027065	4892.338183534089	1125.5922757297371	-21.91598880788151	4824.61806495873	1167.6243565206926	-76.88997571235916	4750.710386454833	1214.0803358656094	-132.5788225785434	4674.853893630065	1250.1089414128828	-175.9115895877806	4536.561898716505	1329.023081419063	-186.44735184946592	4798.5381461524	1213.0343879137695	-130.29055525674573	4881.807870459346	1259.227989274962	-203.0490506616212	4984.919037209492	1048.164326378234	-297.96815238112737	5165.527559844194	933.5860703761476	-389.5525328686033	5173.562128266669	944.0877181276893	-413.56081032796754	5171.3428675887335	939.1966286197464	-439.96009911609696	5171.511122832632	932.5250634479764	-457.1616104946085	5173.11745197367	924.1697945012829	-470.48977303815093	5182.256113592922	933.9425362712688	-411.29158327898676	5206.323873849063	919.7900483576262	-441.1298041301244	5213.38567135179	906.7527815921608	-463.13007961071355	5209.19520632818	900.6554802807661	-476.13426487929434	5199.938759092443	896.9631790057184	-486.443611581167	5185.619085159926	925.4021767083134	-407.0943240043991	5210.915850709876	906.9796898045354	-433.92697385115895	5218.975242609509	891.6684816760994	-457.28458711523126	5214.089243797528	883.7916788264237	-472.6621907784938	5204.043474117491	879.4985337424373	-483.7910637056797	5187.495203636661	919.7377760736305	-403.3531918156042	5212.129337311328	898.3344690315325	-424.1110574459217	5219.474188203285	883.9091674676246	-443.76410863812606	5214.931307010147	875.7378294916055	-458.2223454535499	5205.566322937101	871.4294131288837	-468.50873706904287	5188.0594324104495	913.5545519638217	-398.28988223213815	5211.393040626341	890.1346270002836	-414.16886720952897	5217.665880531146	876.9917392694946	-428.7151694140177	5214.541597296411	870.2616061955785	-438.684881306712	5206.354695902583	866.0019426815146	-447.46534527976274	4751.920673713561	1182.6551383905742	-98.42400332272915	4689.770313714651	1084.659224537546	-50.24121729625908	4901.674301881812	1007.1333148788641	-176.73962046443356	5112.45624586517	948.9851782312256	-296.29893858356803	5126.438785745033	967.2653578977271	-312.0064260335954	5156.731263039584	974.6688903383188	-309.62980824043234	5179.913255035222	976.4046237176691	-307.23095881350355	5201.023853067026	974.9258363238663	-304.59485946220786	5134.53339093921	956.9029766970583	-312.65502952311556	5178.901821766587	955.363077637406	-326.7776938713486	5213.341345320652	953.1134588112786	-326.59722134877217	5231.566060120395	953.9737182690188	-320.50135561909946	5244.50138429451	956.2094232522098	-311.41965201976535	5138.8329030657815	947.5984931203134	-309.6648156906613	5184.433126945338	941.0640585955491	-321.8250842808389	5222.441349095544	937.3850909432995	-321.1752899461433	5244.634099377128	937.8355257850853	-313.6035272149186	5258.887482787414	939.996215477236	-303.5608350874367	5140.724581065622	941.0534699063764	-307.291416915259	5183.1934725294295	929.4844433996758	-316.42048745589074	5216.68716474389	925.0370219547762	-315.3709878370592	5238.287976572976	924.8125548501465	-307.81083543255716	5251.781743129351	926.5318957416625	-298.24657693912695	5141.727492276712	933.6388911049942	-303.362388781612	5181.266301931396	918.4203874094937	-309.65196680501793	5208.472072181348	912.9737596354742	-308.0172725078423	5224.414154821582	911.8980571287382	-302.11863562039144	5236.474696899336	912.8962512321089	-293.4251320788453
68	0.558	5081.203	893.81699	129.612	5170.842016628284	902.8361601745383	91.22460269470298	5065.561032225498	502.9703998775156	23.76539354269184	5036.935460065033	109.82066110840539	10.23069358582246	4920.590423265245	41.46772258942811	148.6794509178967	5004.91275347498	859.2790890089078	181.6714513420413	4900.779994948105	470.33945483459433	296.71536064451936	4787.444874513385	75.78145885590747	460.0377266464108	4640.329935639459	28.956467397809245	348.49176227911903	5018.12081590235	1011.6987160157955	79.24217950050607	4958.250373273571	1070.5728577018276	30.960209401581178	4892.19796550672	1125.3923785804425	-22.047818992500254	4824.477708202039	1167.3486629673625	-77.08590234169131	4750.552447778408	1213.7150327920424	-132.83075374853132	4674.535805561072	1249.5300556821455	-176.0684302034894	4536.146137432063	1328.281845591708	-186.45229664005024	4798.403940664441	1212.825367222814	-130.407987781764	4881.789566062621	1259.5843770321121	-202.55987473303443	4986.582911620728	1049.3523375426832	-297.79894712436453	5168.590789805271	937.0542858126558	-390.2882376263656	5176.903164874818	948.1365171290374	-413.87653544891197	5175.030470705046	943.9292728415982	-440.449325570188	5175.434012980123	937.7047364205589	-457.84576754503706	5177.23130465441	929.6971552630861	-471.39982925970503	5185.596757859465	937.9294581653852	-411.79252314334855	5210.083982969337	924.5067351132747	-441.728277005036	5217.459856196173	912.0332200755925	-464.0202141539775	5213.449209173734	906.2842500858884	-477.2606302461468	5204.331181077201	902.8788107561111	-487.8025406267301	5188.929695802808	929.2869338862199	-407.8040570393355	5214.619343487292	911.5209603392848	-434.8447102979881	5223.016158232126	896.8091396609208	-458.5480972208039	5218.344562218158	889.3450148553336	-474.2239075942209	5208.449012584209	885.3620676880508	-485.6136656663928	5190.773710185639	923.5311179281933	-404.20617982572435	5215.73154552982	902.6350282733547	-425.26963963543074	5223.364465710134	888.7150005778424	-445.25188122243566	5219.025190565746	880.9326133451269	-460.01253248095327	5209.799933743374	876.911544368273	-470.55122098129294	5191.290212825484	917.2262223064048	-399.3190855014527	5214.890822750232	894.1946818601657	-415.58109281709693	5221.383519875084	881.4274285899811	-430.43307006567295	5218.402514824266	874.9669838665524	-440.64371574231285	5210.336377473484	870.953798361013	-449.6593862424477	4751.756715478701	1182.1949603703363	-98.77966832861495	4689.409770084788	1084.0271554625936	-51.27524748424587	4901.609719124843	1008.011888267691	-177.87655391692024	5113.224511505935	951.2976080221481	-297.25435635339414	5127.33722828861	969.8501110890996	-312.35294282788624	5157.644382683367	977.1341854350835	-309.49125237933174	5180.836298450049	978.7766286397123	-306.81934394368204	5201.9549144543325	977.2114299345067	-304.0109950887619	5135.456821311973	959.5180224879796	-313.17721257873177	5180.0001632396015	958.2233538076507	-326.88035156898013	5214.48602901869	955.9226590366837	-326.41094023320954	5232.684849139658	956.6186531554689	-320.11690541403067	5245.561839963893	958.6290124519579	-310.8586748952702	5139.745852876607	950.1669954252307	-310.37784140056937	5185.5110323126555	943.8466393872021	-322.2321434273008	5223.5677784173095	940.1047238541634	-321.29360488165344	5245.728306680311	940.3535163840783	-313.49549724950003	5259.917385681419	942.265954099913	-303.2658451266771	5141.62646092156	943.5850656102814	-308.15028731495966	5184.23591177022	932.1823953816607	-317.1326595628734	5217.769539303839	927.6723731740502	-315.85910101699955	5239.338017817137	927.2492980022429	-308.09528384823665	5252.770728493887	928.7332725208632	-298.36218470243944	5142.605258103924	936.1032448260448	-304.3990721633325	5182.260856306882	921.0034440833208	-310.6646220830588	5209.494307127442	915.4938780229463	-308.8942234896127	5225.410726696325	914.2671132308894	-302.8681790426602	5237.415986499897	915.053244881541	-294.03727955775804
69	0.567	5081.203	893.81699	129.612	5170.988507177704	902.9441976473531	91.35307302207323	5065.4679302055465	503.0769487082406	24.314629005443372	5037.000950651298	109.86351733571958	11.185647602240955	4920.553137385018	41.65397127020757	149.69621434913054	5004.778013558574	859.1812769411476	181.55055466637748	4900.486298034622	470.3816057063026	296.91299950033164	4786.775146340201	76.22013327741502	460.80721245446784	4639.979442349808	29.717599439413412	348.67585529699096	5018.04169957124	1011.6503817509963	79.21286554545316	4958.141394309632	1070.4565113590581	30.881203843540458	4892.068557625858	1125.1993959245024	-22.1861583390602	4824.349967115883	1167.0821627370733	-77.29020128825222	4750.409441915335	1213.361092846013	-133.09377415797246	4674.241063265904	1248.9687270753498	-176.24262644291935	4535.748451437715	1327.5479529057582	-186.47645010994202	4798.279705303574	1212.6156817233502	-130.5415292126731	4881.761163940418	1259.8720629300024	-202.11681183775164	4988.1481261052095	1050.4338894084385	-297.5294551305501	5171.412425960382	940.3986928153366	-390.881215992342	5179.970868168943	952.0395222537878	-414.0305575211445	5178.419664044584	948.5210717607716	-440.74269468968805	5179.042954840295	942.7498676463218	-458.31088712477657	5181.019901803963	935.0976736807141	-472.0720412834099	5188.667484843482	941.7766754829108	-412.13361396690533	5213.5405029920585	929.0792751843853	-442.13679747969763	5221.210072950993	917.177832607869	-464.69182772088215	5217.369295220814	911.7866481179502	-478.14837430114267	5208.383287075066	908.678783720588	-488.9046333796658	5191.976941284038	933.040455120619	-408.35627198811386	5218.030171766661	915.9312396627383	-435.5768297679698	5226.743149459975	901.8290320791426	-459.5952120602943	5222.274422618679	894.7895414215344	-475.54516868391386	5212.522319214695	891.1287814819681	-487.1759737446367	5193.794314792494	927.1992221918663	-404.9041401133355	5219.054262697277	906.815489326415	-426.2503941251468	5226.957767555816	893.4108202983928	-446.5354475040762	5222.811528666001	886.0295389002828	-461.57554282258604	5213.719893170211	882.3073852320842	-472.3479880570906	5194.270561321183	920.7804698184174	-400.1964100086967	5218.1228816769	898.1465149298951	-416.82271203137736	5224.82316062829	885.7647786235059	-431.96003895794695	5221.978558846951	879.5837622494788	-442.3952495496773	5214.02825707284	875.8278051418436	-451.6299250691372	4751.610709177358	1181.756820018727	-99.13901194555993	4689.082526186452	1083.456292783882	-52.26396913151528	4901.496248047598	1008.8421270301224	-178.93137657673338	5113.8623838225385	953.516638423956	-298.0736517560188	5128.07858055206	972.3124177372652	-312.57716133079936	5158.391272775235	979.4640554779998	-309.25592049944345	5181.588493011644	981.0066056407171	-306.3269176708693	5202.7127691401965	979.3515744939737	-303.35808075411865	5136.225307571979	962.0153837179157	-313.5702842249766	5180.919706550737	960.9435080744079	-326.8648174484443	5215.444185692791	958.5830843253316	-326.1225937133336	5233.61760482262	959.1130117387821	-319.6457226789333	5246.440245024444	960.8989479500065	-310.2272359892108	5140.509857440405	952.6255488578518	-310.95686060114	5186.419968134275	946.5015688712683	-322.5131965113002	5224.517684409615	942.6883654753894	-321.30284020147724	5246.64700853261	942.7338712967234	-313.2965643626135	5260.776346290671	944.3993236393392	-302.8975989672761	5142.384158986723	946.0126910439816	-308.87131790928817	5185.12011442711	934.7655287616343	-317.71055273151944	5218.688025334615	930.1867917008582	-316.22699137851197	5240.225647269634	929.5641357697498	-308.27667213297644	5253.601827123856	930.814225509799	-298.3911493108284	5143.345680513074	938.4716355825466	-305.2939394733169	5183.1091045080775	923.4853182088191	-311.5359565267202	5210.367225809214	917.909767773088	-309.64000698174783	5226.25979269218	916.5321260127583	-303.49854031929084	5238.214200636987	917.1080226948518	-294.5444807892812
